<mxfile host="app.diagrams.net" modified="2024-05-09T10:08:43.942Z" agent="Mozilla/5.0 (Macintosh; Intel Mac OS X 10_15_6) AppleWebKit/537.36 (KHTML, like Gecko) Chrome/108.0.5359.95 Safari/537.36" version="24.0.6" etag="WLrGHeIGR9MLJVLL0zdg" type="github">
  <diagram name="第 1 页" id="mLNBn7Hjw3M8dXpHM4pd">
    <mxGraphModel>
      <root>
        <mxCell id="0" />
        <mxCell id="1" parent="0" />
      </root>
    </mxGraphModel>
  </diagram>
</mxfile>
